# xmcd
#
# Track frame offsets: 
#        150
#        16526
#        31880
#        52025
#        68682
#        84953
#        102342
#        116342
#        130415
#        146087
#        165970
#        182030
#
# Disc length: 2620 seconds
#
# Revision: 0
# Processed by: cddbd v1.5.2PL0 Copyright (c) Steve Scherf et al.
# Submitted via: ExactAudioCopy v1.3
#
DISCID=910a3a0c
DTITLE=Troye Sivan - Bloom
DYEAR=2018
DGENRE=Pop
TTITLE0=Seventeen
TTITLE1=My My My!
TTITLE2=The Good Side
TTITLE3=Bloom
TTITLE4=Poscard Feat. Gordi
TTITLE5=Dance To This Feat. Ariana Grande
TTITLE6=Plum
TTITLE7=What A Heavenly Way To Die
TTITLE8=Lucky Strike
TTITLE9=Animal
TTITLE10=This This
TTITLE11=Running Shoes
EXTD=
EXTT0=
EXTT1=
EXTT2=
EXTT3=
EXTT4=
EXTT5=
EXTT6=
EXTT7=
EXTT8=
EXTT9=
EXTT10=
EXTT11=
PLAYORDER=
